<?xml version="1.0" encoding="UTF-8" standalone="no"?>
<!-- Created with Inkscape (http://www.inkscape.org/) -->

<svg
   width="118.90397mm"
   height="16.360081mm"
   viewBox="0 0 118.90397 16.360081"
   version="1.1"
   id="svg1"
   inkscape:version="1.3 (0e150ed6c4, 2023-07-21)"
   sodipodi:docname="mega-shop-logo.svg"
   xmlns:inkscape="http://www.inkscape.org/namespaces/inkscape"
   xmlns:sodipodi="http://sodipodi.sourceforge.net/DTD/sodipodi-0.dtd"
   xmlns:xlink="http://www.w3.org/1999/xlink"
   xmlns="http://www.w3.org/2000/svg"
   xmlns:svg="http://www.w3.org/2000/svg">
  <sodipodi:namedview
     id="namedview1"
     pagecolor="#ffffff"
     bordercolor="#000000"
     borderopacity="0.25"
     inkscape:showpageshadow="2"
     inkscape:pageopacity="0.0"
     inkscape:pagecheckerboard="0"
     inkscape:deskcolor="#d1d1d1"
     inkscape:document-units="mm"
     inkscape:zoom="1.4948513"
     inkscape:cx="130.11328"
     inkscape:cy="54.520473"
     inkscape:window-width="1920"
     inkscape:window-height="1017"
     inkscape:window-x="1912"
     inkscape:window-y="-8"
     inkscape:window-maximized="1"
     inkscape:current-layer="layer1" />
  <defs
     id="defs1">
    <linearGradient
       id="linearGradient5"
       inkscape:collect="always">
      <stop
         style="stop-color:#ffea00;stop-opacity:1;"
         offset="0"
         id="stop5" />
      <stop
         style="stop-color:#f3000f;stop-opacity:1;"
         offset="1"
         id="stop6" />
    </linearGradient>
    <linearGradient
       inkscape:collect="always"
       xlink:href="#linearGradient5"
       id="linearGradient6"
       x1="140.4978"
       y1="17.824623"
       x2="158.89163"
       y2="36.497746"
       gradientUnits="userSpaceOnUse" />
  </defs>
  <g
     inkscape:label="Layer 1"
     inkscape:groupmode="layer"
     id="layer1"
     transform="translate(-39.715281,-19.821877)">
    <path
       style="font-size:85.3334px;font-family:Bahnschrift;-inkscape-font-specification:'Bahnschrift, @wght=600,wdth=87.0';font-variation-settings:'wdth' 87, 'wght' 600;text-align:center;letter-spacing:0px;word-spacing:0px;text-anchor:middle;white-space:pre;stroke-linecap:round;stroke-linejoin:round"
       d="m 185.8967,75.542331 h 9.83334 v 60.583379 h -8.75001 V 91.042343 l 0.54167,2.666668 -11.37501,33.416689 h -6.50001 l -11.33334,-32.583355 0.66667,-3.500002 V 136.12571 H 150.105 V 75.542331 h 9.95834 l 12.83335,37.833359 z m 20.75001,0 h 9.50001 v 60.583379 h -9.50001 z m 4.25001,51.416709 h 28.58335 v 9.16667 h -28.58335 z m 0,-25.50002 h 25.29168 v 9.16667 h -25.29168 z m 0,-25.916689 h 28.58335 v 9.166673 h -28.58335 z m 72.75005,27.625019 v 14.70835 q 0,5.75 -2.20834,10.04167 -2.16666,4.25 -6.25,6.54167 -4.08334,2.29167 -9.58334,2.29167 -5.625,0 -9.75001,-2.16667 -4.125,-2.16667 -6.375,-6.20834 -2.20834,-4.04167 -2.20834,-9.5 V 93.875678 q 0,-5.791671 2.20834,-10.041674 2.20833,-4.29167 6.25,-6.583338 4.08334,-2.333335 9.62501,-2.333335 5.41667,0 9.25001,2.083334 3.875,2.083335 6,6.208338 2.16667,4.125003 2.54167,10.208341 v 0 H 273.1051 v 0 q -0.25,-3.000002 -1.25001,-4.958337 -1,-2.000001 -2.66666,-3.000002 -1.62501,-1.000001 -3.83334,-1.000001 -2.54167,0 -4.41667,1.166668 -1.875,1.166667 -2.91667,3.291669 -1,2.125002 -1,4.958337 V 118.8757 q 0,2.5 1.04167,4.41667 1.04166,1.875 2.95833,2.91667 1.95834,1 4.58334,1 2.58333,0 4.45834,-1.08334 1.91666,-1.125 2.91667,-3.16667 1.04166,-2.08333 1.04166,-4.95833 v -5.70834 h -8.25 v -9.12501 z m 21.83335,-27.625019 h 7.25001 l 18.29168,60.583379 H 321.0218 L 309.10512,91.625676 297.18845,136.12571 h -10.04168 z m -8.29167,40.166699 h 24.25002 v 9 h -24.25002 z m 76.79173,21.04168 q -5.04167,0 -8.83334,-1.5 -3.79167,-1.54167 -6.25001,-4.5 -2.45833,-3.00001 -3.45833,-7.37501 v 0 l 9,-3.66667 v 0 q 1.08334,3.875 3.58334,5.875 2.54167,2.00001 6.25,2.00001 4.16667,0 6.45834,-1.83334 2.33334,-1.875 2.33334,-5.16667 v -2.79167 q 0,-2.375 -1.29167,-3.875 -1.25,-1.54167 -3.25,-2.375 -2,-0.875 -5.25001,-1.875 -0.125,-0.0417 -0.20833,-0.0417 -0.0833,-0.0417 -0.16667,-0.0833 l -0.5,-0.125 q -4.91667,-1.45834 -8.04167,-3.00001 -3.125,-1.54166 -5.33334,-4.79167 -2.16667,-3.249999 -2.16667,-8.750003 v -1.750001 q 0,-5.125004 2.12501,-8.750007 2.125,-3.666669 6.20833,-5.54167 4.08334,-1.916668 9.87501,-1.916668 4.45834,0 7.83334,1.458334 3.375,1.458334 5.62501,4.333337 2.25,2.875002 3.25,7.083338 v 0 l -8.66668,3.750003 v 0 q -1.04166,-3.666669 -3.20833,-5.583338 -2.125,-1.916668 -5.12501,-1.916668 -4.04166,0 -6.25,1.750002 -2.20833,1.750001 -2.20833,4.958337 v 2.041668 q 0,2.500002 1.33333,4.04167 1.33333,1.541667 3.33334,2.416668 2,0.874998 5.5,1.916668 0.20833,0.0833 0.41667,0.16667 0.25,0.0417 0.45833,0.125 0.16667,0.0833 0.33333,0.125 0.20834,0.0417 0.41667,0.0833 4.5,1.41667 7.45834,3 2.95834,1.54167 4.95834,4.70834 2,3.125 2,8.37501 v 2.79166 q 0,5.12501 -2.20834,8.79168 -2.16667,3.625 -6.33333,5.54167 -4.12501,1.875 -10.00001,1.875 z m 53.2917,-61.208379 h 9.54168 v 60.583379 h -9.54168 z m -26.20835,0 h 9.54167 v 60.583379 h -9.54167 z m 5.16667,26.166689 h 26.66669 v 9.04167 H 406.2302 Z m 59.25003,35.04169 q -5.58334,0 -9.75001,-2.20834 -4.16667,-2.25 -6.41667,-6.375 -2.20833,-4.16667 -2.20833,-9.79167 V 93.292344 q 0,-5.625004 2.20833,-9.750007 2.25,-4.16667 6.41667,-6.375005 4.16667,-2.250001 9.75001,-2.250001 5.58334,0 9.75001,2.250001 4.16667,2.208335 6.375,6.375005 2.25,4.125003 2.25,9.750007 V 118.3757 q 0,5.625 -2.25,9.79167 -2.20833,4.125 -6.375,6.375 -4.16667,2.20834 -9.75001,2.20834 z m 0,-9.45834 q 2.625,0 4.58334,-1.08333 1.95833,-1.12501 3,-3.16667 1.08333,-2.04167 1.08333,-4.79167 V 93.417344 q 0,-2.750002 -1.08333,-4.79167 -1.04167,-2.083335 -3,-3.166669 -1.95834,-1.125001 -4.58334,-1.125001 -2.625,0 -4.58334,1.125001 -1.95833,1.083334 -3,3.166669 -1.04167,2.041668 -1.04167,4.79167 V 118.2507 q 0,2.75 1.04167,4.79167 1.04167,2.04166 3,3.16667 1.95834,1.08333 4.58334,1.08333 z m 32.50003,-23.79168 h 15.08335 q 1.875,0 3.29166,-0.87501 1.45834,-0.875 2.20834,-2.5 0.79167,-1.666665 0.79167,-3.833334 v -4.250003 q 0,-2.250001 -0.79167,-3.916669 -0.75,-1.666668 -2.16667,-2.541669 -1.41667,-0.916667 -3.33333,-0.916667 h -15.08335 v -9.125007 h 14.95834 q 4.95834,0 8.58334,1.958335 3.66667,1.916668 5.62501,5.541671 1.95833,3.625002 1.95833,8.541673 v 5.16667 q 0,4.875 -2,8.45834 -1.95833,3.58334 -5.58334,5.5 -3.625,1.91667 -8.58334,1.91667 h -14.95834 z m -4.66667,-27.958359 h 9.50001 v 60.583379 h -9.50001 z"
       id="text2"
       transform="scale(0.26458333)"
       aria-label="MEGA SHOP" />
    <path
       id="path2"
       style="font-variation-settings:'wdth' 87, 'wght' 600;fill:url(#linearGradient6);stroke-width:0.264583;stroke-linecap:round;stroke-linejoin:round"
       d="m 150.44715,19.822046 a 8.1791792,8.1800404 0 0 0 -8.17935,8.179862 8.1791792,8.1800404 0 0 0 3.12022,6.404777 l 8.83461,-13.659114 a 8.1791792,8.1800404 0 0 0 -3.77548,-0.925525 z m 5.2343,1.896008 -8.8129,13.626042 a 8.1791792,8.1800404 0 0 0 1.15394,0.449585 l 8.54521,-13.212114 a 8.1791792,8.1800404 0 0 0 -0.88625,-0.863513 z m 1.95751,2.433443 -7.7587,11.996167 a 8.1791792,8.1800404 0 0 0 0.56689,0.03411 8.1791792,8.1800404 0 0 0 0.8971,-0.06408 l 6.8616,-10.609688 a 8.1791792,8.1800404 0 0 0 -0.56689,-1.356507 z m 0.9803,3.943946 -4.73925,7.327718 a 8.1791792,8.1800404 0 0 0 4.73925,-7.327718 z" />
  </g>
</svg>
